<?xml version="1.0" standalone="no"?>
<!DOCTYPE svg PUBLIC "-//W3C//DTD SVG 20010904//EN"
 "http://www.w3.org/TR/2001/REC-SVG-20010904/DTD/svg10.dtd">
<svg version="1.0" xmlns="http://www.w3.org/2000/svg"
 width="230.000000pt" height="230.000000pt" viewBox="0 0 230.000000 230.000000"
 preserveAspectRatio="xMidYMid meet">
<metadata>
Created by potrace 1.11, written by Peter Selinger 2001-2013
</metadata>
<g transform="translate(0.000000,230.000000) scale(0.100000,-0.100000)"
fill="#000000" stroke="none">
<path d="M809 1778 c-195 -116 -356 -213 -359 -215 -3 -2 -5 -21 -5 -41 0 -27
6 -40 20 -48 106 -60 168 -94 171 -94 1 0 4 17 6 37 l3 37 260 156 260 156 65
-39 c36 -22 74 -45 85 -51 84 -47 371 -221 376 -229 4 -5 7 -160 6 -344 l0
-334 64 -39 c53 -32 67 -36 79 -26 8 7 23 16 33 19 16 6 17 35 17 420 l0 414
-342 205 c-189 113 -352 210 -364 216 -18 9 -67 -17 -375 -200z"/>
<path d="M269 1886 c-25 -7 -59 -22 -77 -34 -45 -33 -163 -233 -170 -288 -6
-54 18 -121 56 -156 22 -20 196 -128 207 -128 2 0 59 -32 127 -71 67 -39 152
-87 188 -107 36 -19 77 -43 92 -54 14 -10 28 -18 31 -18 3 0 45 -23 94 -51 48
-29 108 -63 133 -77 25 -14 212 -120 415 -235 496 -282 502 -285 547 -298 52
-13 112 -4 166 28 31 17 58 48 100 111 82 125 87 137 87 208 0 95 -29 130
-180 215 -66 38 -125 69 -130 69 -7 0 -10 -44 -10 -116 l0 -116 47 -24 c61
-31 79 -57 66 -94 -14 -41 -53 -80 -80 -80 -13 0 -104 46 -203 103 -99 57
-202 116 -230 131 -27 16 -162 92 -300 171 -137 78 -270 153 -295 167 -532
302 -715 410 -721 427 -8 21 23 87 50 108 24 19 42 16 103 -17 l56 -31 102 62
102 61 -99 55 c-160 90 -195 100 -274 79z"/>
<path d="M985 1456 c-93 -56 -169 -106 -168 -110 1 -4 81 -54 178 -112 161
-96 175 -107 175 -133 0 -26 14 -37 169 -130 93 -55 173 -101 178 -101 13 0
10 467 -3 480 -9 9 -354 211 -358 209 0 0 -77 -47 -171 -103z"/>
<path d="M447 1132 c-2 -4 -3 -95 -3 -202 l1 -195 290 -168 c160 -92 297 -171
305 -175 9 -4 41 -22 72 -40 l57 -33 168 97 c92 53 172 100 176 104 5 4 -18
22 -50 40 -32 18 -74 42 -93 53 -19 11 -69 39 -111 63 -42 24 -79 44 -82 44
-4 0 -7 -38 -7 -85 0 -47 -4 -85 -9 -85 -5 0 -84 44 -177 98 -93 54 -208 120
-256 147 -63 36 -88 56 -89 70 0 11 -1 53 -2 93 l-2 73 -92 54 c-51 30 -94 51
-96 47z"/>
</g>
</svg>
